<svg xmlns="http://www.w3.org/2000/svg" viewBox="0 0 522.98 140.28"><title>Asset 2</title><g id="Layer_2" data-name="Layer 2"><g id="Layer_1-2" data-name="Layer 1"><polygon points="1.3 125.99 130.12 10.24 471.84 125.99 1.3 125.99" fill="#fff" stroke="#000" stroke-miterlimit="10"/><polygon points="15.05 121.59 123.05 24.54 409.53 121.59 15.05 121.59"/><path d="M33,125.68,29.78,138,128.2,49.61,272.91,98.69q1.16-1.72,6.14-2.07l-4.28-1.7-.57-.22-2.82-1-5.69-2-11.38-4-45.5-15.91-45.5-15.91-22.75-8L130,44.26l-3.11-1.18-1.76,1.48-.9.75-2.85,2.51L108.72,58.94,83.48,81.19Z" fill="#202020"/><path d="M33.65,112.77l-3.21,12.3,95.62-85.86,173.82,59q9.75,1.43,22.9,4.07l-33.41-12-8.85-3.16L268,82.72,238.52,72.43,124.7,32.59Z" fill="#202020"/><path d="M373.65,130l90.71.61-194.7-67.5L120.26,11,36.86,84.54l-3.21,12.3,88-79L444.92,127.42l-58.74,0Q381,128.72,373.65,130Z" fill="#202020"/><path d="M290.89,111l59,1-1.25-.44q-13.42-3-24.75-5.24l6.67,2.27-37.05,0A5.25,5.25,0,0,1,290.89,111Z" fill="#202020"/><path d="M284.92,102.27l10.41.5q-2.28-1-5.45-2.32A149.58,149.58,0,0,0,274,99.06l1,.35h-.65Q280.67,100.86,284.92,102.27Z" fill="#202020"/><path d="M187.56,137.48l55.57.54c14.17.13,20.49,0,24-.25,1.77-.12,2.84-.26,3.86-.41l1.55-.22.62-.05L274,137l1.76-.1-80.84-.5Z" fill="#202020"/><path d="M113.87,136.34l52.32.34,10.81-1H121.76Z" fill="#202020"/><path d="M291.07,139.05,523,140.28,272.76,54,201.37,29,165.68,16.54,147.83,10.3,118,0,100.75,15.35,90.9,24,73.2,39.64,37.82,70.82l-3.21,12.3L119.43,7,503,137l-186.64,0Q304.54,138,291.07,139.05Z" fill="#202020"/><path d="M225.61,129.25l42.71.42,57.13.42q13.26-1.15,24-2.35l-112.81,0Z" fill="#202020"/><path d="M161.93,119.34l71.71.7,10.8-1.69-77,0Z" fill="#202020"/><path d="M191.78,110l81,.79a32.66,32.66,0,0,0,5.06-2.11l-79.94,0Z" fill="#202020"/><path d="M224.34,101l45.07.44,2.82,0a4.08,4.08,0,0,1,.59,0H273l.62.05,1.33.11,3,.22a18.85,18.85,0,0,0-4.38-2.47l-.72,0-41.91,0Z" fill="#202020"/><path d="M33,109.74,123.8,28.2l258.54,87.69,15.95,3.84a1.9,1.9,0,0,1,.36,1.55l9.6.09L122.41,21.45l-86.21,76Z" fill="#202020"/><path d="M398.65,121.29a1.9,1.9,0,0,0-.36-1.55l-15.95-3.84.75.25,12.24,3.1a9.68,9.68,0,0,1-3.5,2Z" fill="#202020"/><path d="M269.34,120.32l91.11.8c2.95-.94,3.07-2.07,3.21-3.12l-78.6,0q-3.39.59-7.28,1.18l-4,.59-2.17.29Z" fill="#202020"/><path d="M211.67,127.11l-74,0-1.16.19-2.44.52,68.6.74Z" fill="#202020"/><path d="M99.78,118.49l45.8.44,4.8-1-47.88,0Z" fill="#202020"/><path d="M79.81,118.26l1.35-.38h-25Z" fill="#202020"/><path d="M114.36,109.15l61.92.6,5.36-1.26-63.86,0C116.72,108.72,115.57,108.94,114.36,109.15Z" fill="#202020"/><path d="M199.49,100.58c1.88-.5,3.64-1,5.3-1.51l-74,0c-.78.27-1.5.56-2.18.85Z" fill="#202020"/><path d="M72.66,127l.06-.09H67.5Z" fill="#202020"/><path d="M121.16,127.62l1.77-.66-35.08,0s0,.06,0,.09Z" fill="#202020"/><path d="M86.92,109l2.79-.57-37.34,0-.13.12Z" fill="#202020"/><path d="M37.77,108.26l.14-.12H28.35Z" fill="#202020"/><path d="M99.61,100l5.23-.51-51.61,0-.1.13Z" fill="#202020"/><path d="M28.9,99.53A.93.93,0,0,1,29,99.4H15.05Z" fill="#202020"/><path d="M94.26,136.07l5.74.1,8.43.15.69-.32c.19-.09.38-.18.55-.27H80l-.18.11Z" fill="#202020"/><path d="M72.57,135.76l.06-.09H67.4Z" fill="#202020"/><path d="M46.26,118l.06-.09H41.1Z" fill="#202020"/></g></g></svg>